<mxfile host="app.diagrams.net" modified="2021-12-02T07:13:25.117Z" agent="5.0 (Windows NT 10.0; Win64; x64) AppleWebKit/537.36 (KHTML, like Gecko) Chrome/96.0.4664.45 Safari/537.36" etag="MpQAFm2smgVB2Z0wIWNo" version="15.5.6" type="github">
  <diagram id="V9he01ceWmoxbT-5eS5x" name="Page-1">
    <mxGraphModel dx="1124" dy="929" grid="1" gridSize="10" guides="1" tooltips="1" connect="1" arrows="1" fold="1" page="1" pageScale="1" pageWidth="1654" pageHeight="2336" math="0" shadow="0">
      <root>
        <mxCell id="0" />
        <mxCell id="1" parent="0" />
        <mxCell id="nk5KbnTbqSaS5txyQPrg-30" style="edgeStyle=orthogonalEdgeStyle;rounded=0;orthogonalLoop=1;jettySize=auto;html=1;" edge="1" parent="1" source="nk5KbnTbqSaS5txyQPrg-10" target="nk5KbnTbqSaS5txyQPrg-16">
          <mxGeometry relative="1" as="geometry">
            <Array as="points">
              <mxPoint x="330" y="101" />
              <mxPoint x="330" y="30" />
            </Array>
          </mxGeometry>
        </mxCell>
        <mxCell id="nk5KbnTbqSaS5txyQPrg-10" value="로그인" style="sketch=0;pointerEvents=1;shadow=0;dashed=0;html=1;strokeColor=none;fillColor=#505050;labelPosition=center;verticalLabelPosition=bottom;verticalAlign=top;outlineConnect=0;align=center;shape=mxgraph.office.devices.cell_phone_iphone_standalone;" vertex="1" parent="1">
          <mxGeometry x="270" y="80" width="25" height="42" as="geometry" />
        </mxCell>
        <mxCell id="nk5KbnTbqSaS5txyQPrg-13" value="" style="edgeStyle=orthogonalEdgeStyle;rounded=0;orthogonalLoop=1;jettySize=auto;html=1;" edge="1" parent="1" source="nk5KbnTbqSaS5txyQPrg-11" target="nk5KbnTbqSaS5txyQPrg-10">
          <mxGeometry relative="1" as="geometry">
            <Array as="points">
              <mxPoint x="250" y="146" />
              <mxPoint x="250" y="100" />
            </Array>
          </mxGeometry>
        </mxCell>
        <mxCell id="nk5KbnTbqSaS5txyQPrg-28" style="edgeStyle=orthogonalEdgeStyle;rounded=0;orthogonalLoop=1;jettySize=auto;html=1;" edge="1" parent="1" source="nk5KbnTbqSaS5txyQPrg-11" target="nk5KbnTbqSaS5txyQPrg-18">
          <mxGeometry relative="1" as="geometry">
            <Array as="points">
              <mxPoint x="250" y="146" />
              <mxPoint x="250" y="181" />
            </Array>
          </mxGeometry>
        </mxCell>
        <object label="로그인 화면" id="nk5KbnTbqSaS5txyQPrg-11">
          <mxCell style="sketch=0;pointerEvents=1;shadow=0;dashed=0;html=1;strokeColor=none;fillColor=#505050;labelPosition=center;verticalLabelPosition=bottom;verticalAlign=top;outlineConnect=0;align=center;shape=mxgraph.office.devices.cell_phone_iphone_standalone;" vertex="1" parent="1">
            <mxGeometry x="180" y="125" width="25" height="42" as="geometry" />
          </mxCell>
        </object>
        <mxCell id="nk5KbnTbqSaS5txyQPrg-16" value="회원 정보 수정&lt;br&gt;회원 탈퇴" style="sketch=0;pointerEvents=1;shadow=0;dashed=0;html=1;strokeColor=none;fillColor=#505050;labelPosition=center;verticalLabelPosition=bottom;verticalAlign=top;outlineConnect=0;align=center;shape=mxgraph.office.devices.cell_phone_iphone_standalone;" vertex="1" parent="1">
          <mxGeometry x="360" y="10" width="25" height="42" as="geometry" />
        </mxCell>
        <mxCell id="nk5KbnTbqSaS5txyQPrg-18" value="회원가입" style="sketch=0;pointerEvents=1;shadow=0;dashed=0;html=1;strokeColor=none;fillColor=#505050;labelPosition=center;verticalLabelPosition=bottom;verticalAlign=top;outlineConnect=0;align=center;shape=mxgraph.office.devices.cell_phone_iphone_standalone;" vertex="1" parent="1">
          <mxGeometry x="270" y="160" width="25" height="42" as="geometry" />
        </mxCell>
        <mxCell id="nk5KbnTbqSaS5txyQPrg-55" style="edgeStyle=orthogonalEdgeStyle;rounded=0;orthogonalLoop=1;jettySize=auto;html=1;" edge="1" parent="1" source="nk5KbnTbqSaS5txyQPrg-32" target="nk5KbnTbqSaS5txyQPrg-36">
          <mxGeometry relative="1" as="geometry" />
        </mxCell>
        <mxCell id="nk5KbnTbqSaS5txyQPrg-32" value="홈" style="sketch=0;pointerEvents=1;shadow=0;dashed=0;html=1;strokeColor=none;fillColor=#505050;labelPosition=center;verticalLabelPosition=bottom;verticalAlign=top;outlineConnect=0;align=center;shape=mxgraph.office.devices.cell_phone_iphone_standalone;" vertex="1" parent="1">
          <mxGeometry x="190" y="1100" width="25" height="42" as="geometry" />
        </mxCell>
        <mxCell id="nk5KbnTbqSaS5txyQPrg-33" value="" style="edgeStyle=orthogonalEdgeStyle;rounded=0;orthogonalLoop=1;jettySize=auto;html=1;" edge="1" parent="1" source="nk5KbnTbqSaS5txyQPrg-35" target="nk5KbnTbqSaS5txyQPrg-32">
          <mxGeometry relative="1" as="geometry">
            <Array as="points">
              <mxPoint x="150" y="1311" />
              <mxPoint x="150" y="1121" />
            </Array>
          </mxGeometry>
        </mxCell>
        <mxCell id="nk5KbnTbqSaS5txyQPrg-34" style="edgeStyle=orthogonalEdgeStyle;rounded=0;orthogonalLoop=1;jettySize=auto;html=1;" edge="1" parent="1" source="nk5KbnTbqSaS5txyQPrg-35" target="nk5KbnTbqSaS5txyQPrg-37">
          <mxGeometry relative="1" as="geometry">
            <Array as="points">
              <mxPoint x="150" y="1311" />
              <mxPoint x="150" y="1221" />
            </Array>
          </mxGeometry>
        </mxCell>
        <mxCell id="nk5KbnTbqSaS5txyQPrg-45" style="edgeStyle=orthogonalEdgeStyle;rounded=0;orthogonalLoop=1;jettySize=auto;html=1;" edge="1" parent="1" source="nk5KbnTbqSaS5txyQPrg-35" target="nk5KbnTbqSaS5txyQPrg-43">
          <mxGeometry relative="1" as="geometry" />
        </mxCell>
        <mxCell id="nk5KbnTbqSaS5txyQPrg-46" style="edgeStyle=orthogonalEdgeStyle;rounded=0;orthogonalLoop=1;jettySize=auto;html=1;" edge="1" parent="1" source="nk5KbnTbqSaS5txyQPrg-35" target="nk5KbnTbqSaS5txyQPrg-42">
          <mxGeometry relative="1" as="geometry">
            <Array as="points">
              <mxPoint x="150" y="1311" />
              <mxPoint x="150" y="1403" />
            </Array>
          </mxGeometry>
        </mxCell>
        <mxCell id="nk5KbnTbqSaS5txyQPrg-47" style="edgeStyle=orthogonalEdgeStyle;rounded=0;orthogonalLoop=1;jettySize=auto;html=1;" edge="1" parent="1" source="nk5KbnTbqSaS5txyQPrg-35" target="nk5KbnTbqSaS5txyQPrg-44">
          <mxGeometry relative="1" as="geometry">
            <Array as="points">
              <mxPoint x="150" y="1311" />
              <mxPoint x="150" y="1491" />
            </Array>
          </mxGeometry>
        </mxCell>
        <object label="하단 네비게이션" id="nk5KbnTbqSaS5txyQPrg-35">
          <mxCell style="sketch=0;pointerEvents=1;shadow=0;dashed=0;html=1;strokeColor=none;fillColor=#505050;labelPosition=center;verticalLabelPosition=bottom;verticalAlign=top;outlineConnect=0;align=center;shape=mxgraph.office.devices.cell_phone_iphone_standalone;" vertex="1" parent="1">
            <mxGeometry x="80" y="1290" width="25" height="42" as="geometry" />
          </mxCell>
        </object>
        <mxCell id="nk5KbnTbqSaS5txyQPrg-36" value="매인 화면" style="sketch=0;pointerEvents=1;shadow=0;dashed=0;html=1;strokeColor=none;fillColor=#505050;labelPosition=center;verticalLabelPosition=bottom;verticalAlign=top;outlineConnect=0;align=center;shape=mxgraph.office.devices.cell_phone_iphone_standalone;" vertex="1" parent="1">
          <mxGeometry x="280" y="1100" width="25" height="42" as="geometry" />
        </mxCell>
        <mxCell id="nk5KbnTbqSaS5txyQPrg-99" value="" style="edgeStyle=orthogonalEdgeStyle;rounded=0;orthogonalLoop=1;jettySize=auto;html=1;" edge="1" parent="1" source="nk5KbnTbqSaS5txyQPrg-37" target="nk5KbnTbqSaS5txyQPrg-98">
          <mxGeometry relative="1" as="geometry" />
        </mxCell>
        <mxCell id="nk5KbnTbqSaS5txyQPrg-37" value="검색" style="sketch=0;pointerEvents=1;shadow=0;dashed=0;html=1;strokeColor=none;fillColor=#505050;labelPosition=center;verticalLabelPosition=bottom;verticalAlign=top;outlineConnect=0;align=center;shape=mxgraph.office.devices.cell_phone_iphone_standalone;" vertex="1" parent="1">
          <mxGeometry x="190" y="1200" width="25" height="42" as="geometry" />
        </mxCell>
        <mxCell id="nk5KbnTbqSaS5txyQPrg-38" value="날씨 상세 정보" style="sketch=0;pointerEvents=1;shadow=0;dashed=0;html=1;strokeColor=none;fillColor=#505050;labelPosition=center;verticalLabelPosition=bottom;verticalAlign=top;outlineConnect=0;align=center;shape=mxgraph.office.devices.cell_phone_iphone_standalone;" vertex="1" parent="1">
          <mxGeometry x="270" y="708" width="25" height="42" as="geometry" />
        </mxCell>
        <mxCell id="nk5KbnTbqSaS5txyQPrg-79" style="edgeStyle=orthogonalEdgeStyle;rounded=0;orthogonalLoop=1;jettySize=auto;html=1;" edge="1" parent="1" source="nk5KbnTbqSaS5txyQPrg-39" target="nk5KbnTbqSaS5txyQPrg-40">
          <mxGeometry relative="1" as="geometry">
            <Array as="points">
              <mxPoint x="150" y="853" />
              <mxPoint x="150" y="729" />
            </Array>
          </mxGeometry>
        </mxCell>
        <mxCell id="nk5KbnTbqSaS5txyQPrg-80" style="edgeStyle=orthogonalEdgeStyle;rounded=0;orthogonalLoop=1;jettySize=auto;html=1;" edge="1" parent="1" source="nk5KbnTbqSaS5txyQPrg-39" target="nk5KbnTbqSaS5txyQPrg-51">
          <mxGeometry relative="1" as="geometry">
            <Array as="points">
              <mxPoint x="150" y="853" />
              <mxPoint x="150" y="811" />
            </Array>
          </mxGeometry>
        </mxCell>
        <mxCell id="nk5KbnTbqSaS5txyQPrg-81" style="edgeStyle=orthogonalEdgeStyle;rounded=0;orthogonalLoop=1;jettySize=auto;html=1;" edge="1" parent="1" source="nk5KbnTbqSaS5txyQPrg-39" target="nk5KbnTbqSaS5txyQPrg-52">
          <mxGeometry relative="1" as="geometry">
            <Array as="points">
              <mxPoint x="150" y="853" />
              <mxPoint x="150" y="891" />
            </Array>
          </mxGeometry>
        </mxCell>
        <mxCell id="nk5KbnTbqSaS5txyQPrg-82" style="edgeStyle=orthogonalEdgeStyle;rounded=0;orthogonalLoop=1;jettySize=auto;html=1;" edge="1" parent="1" source="nk5KbnTbqSaS5txyQPrg-39" target="nk5KbnTbqSaS5txyQPrg-53">
          <mxGeometry relative="1" as="geometry">
            <Array as="points">
              <mxPoint x="150" y="853" />
              <mxPoint x="150" y="981" />
            </Array>
          </mxGeometry>
        </mxCell>
        <mxCell id="nk5KbnTbqSaS5txyQPrg-39" value="메인 화면" style="sketch=0;pointerEvents=1;shadow=0;dashed=0;html=1;strokeColor=none;fillColor=#505050;labelPosition=center;verticalLabelPosition=bottom;verticalAlign=top;outlineConnect=0;align=center;shape=mxgraph.office.devices.cell_phone_iphone_standalone;" vertex="1" parent="1">
          <mxGeometry x="80" y="832" width="25" height="42" as="geometry" />
        </mxCell>
        <mxCell id="nk5KbnTbqSaS5txyQPrg-86" style="edgeStyle=orthogonalEdgeStyle;rounded=0;orthogonalLoop=1;jettySize=auto;html=1;" edge="1" parent="1" source="nk5KbnTbqSaS5txyQPrg-40" target="nk5KbnTbqSaS5txyQPrg-38">
          <mxGeometry relative="1" as="geometry" />
        </mxCell>
        <mxCell id="nk5KbnTbqSaS5txyQPrg-40" value="헤더 날씨 한줄" style="sketch=0;pointerEvents=1;shadow=0;dashed=0;html=1;strokeColor=none;fillColor=#505050;labelPosition=center;verticalLabelPosition=bottom;verticalAlign=top;outlineConnect=0;align=center;shape=mxgraph.office.devices.cell_phone_iphone_standalone;" vertex="1" parent="1">
          <mxGeometry x="190" y="708" width="25" height="42" as="geometry" />
        </mxCell>
        <mxCell id="nk5KbnTbqSaS5txyQPrg-42" value="내 정보" style="sketch=0;pointerEvents=1;shadow=0;dashed=0;html=1;strokeColor=none;fillColor=#505050;labelPosition=center;verticalLabelPosition=bottom;verticalAlign=top;outlineConnect=0;align=center;shape=mxgraph.office.devices.cell_phone_iphone_standalone;" vertex="1" parent="1">
          <mxGeometry x="190" y="1382" width="25" height="42" as="geometry" />
        </mxCell>
        <mxCell id="nk5KbnTbqSaS5txyQPrg-49" style="edgeStyle=orthogonalEdgeStyle;rounded=0;orthogonalLoop=1;jettySize=auto;html=1;" edge="1" parent="1" source="nk5KbnTbqSaS5txyQPrg-43" target="nk5KbnTbqSaS5txyQPrg-57">
          <mxGeometry relative="1" as="geometry">
            <mxPoint x="280" y="1311" as="targetPoint" />
          </mxGeometry>
        </mxCell>
        <mxCell id="nk5KbnTbqSaS5txyQPrg-43" value="톡" style="sketch=0;pointerEvents=1;shadow=0;dashed=0;html=1;strokeColor=none;fillColor=#505050;labelPosition=center;verticalLabelPosition=bottom;verticalAlign=top;outlineConnect=0;align=center;shape=mxgraph.office.devices.cell_phone_iphone_standalone;" vertex="1" parent="1">
          <mxGeometry x="190" y="1290" width="25" height="42" as="geometry" />
        </mxCell>
        <mxCell id="nk5KbnTbqSaS5txyQPrg-104" style="edgeStyle=orthogonalEdgeStyle;rounded=0;orthogonalLoop=1;jettySize=auto;html=1;" edge="1" parent="1" source="nk5KbnTbqSaS5txyQPrg-44" target="nk5KbnTbqSaS5txyQPrg-102">
          <mxGeometry relative="1" as="geometry" />
        </mxCell>
        <mxCell id="nk5KbnTbqSaS5txyQPrg-44" value="핫 플" style="sketch=0;pointerEvents=1;shadow=0;dashed=0;html=1;strokeColor=none;fillColor=#505050;labelPosition=center;verticalLabelPosition=bottom;verticalAlign=top;outlineConnect=0;align=center;shape=mxgraph.office.devices.cell_phone_iphone_standalone;" vertex="1" parent="1">
          <mxGeometry x="190" y="1470" width="25" height="42" as="geometry" />
        </mxCell>
        <mxCell id="nk5KbnTbqSaS5txyQPrg-88" value="" style="edgeStyle=orthogonalEdgeStyle;rounded=0;orthogonalLoop=1;jettySize=auto;html=1;" edge="1" parent="1" source="nk5KbnTbqSaS5txyQPrg-51" target="nk5KbnTbqSaS5txyQPrg-87">
          <mxGeometry relative="1" as="geometry" />
        </mxCell>
        <mxCell id="nk5KbnTbqSaS5txyQPrg-51" value="장소 검색" style="sketch=0;pointerEvents=1;shadow=0;dashed=0;html=1;strokeColor=none;fillColor=#505050;labelPosition=center;verticalLabelPosition=bottom;verticalAlign=top;outlineConnect=0;align=center;shape=mxgraph.office.devices.cell_phone_iphone_standalone;" vertex="1" parent="1">
          <mxGeometry x="190" y="790" width="25" height="42" as="geometry" />
        </mxCell>
        <mxCell id="nk5KbnTbqSaS5txyQPrg-90" value="" style="edgeStyle=orthogonalEdgeStyle;rounded=0;orthogonalLoop=1;jettySize=auto;html=1;" edge="1" parent="1" source="nk5KbnTbqSaS5txyQPrg-52" target="nk5KbnTbqSaS5txyQPrg-89">
          <mxGeometry relative="1" as="geometry" />
        </mxCell>
        <mxCell id="nk5KbnTbqSaS5txyQPrg-52" value="관광 명소" style="sketch=0;pointerEvents=1;shadow=0;dashed=0;html=1;strokeColor=none;fillColor=#505050;labelPosition=center;verticalLabelPosition=bottom;verticalAlign=top;outlineConnect=0;align=center;shape=mxgraph.office.devices.cell_phone_iphone_standalone;" vertex="1" parent="1">
          <mxGeometry x="190" y="870" width="25" height="42" as="geometry" />
        </mxCell>
        <mxCell id="nk5KbnTbqSaS5txyQPrg-92" value="" style="edgeStyle=orthogonalEdgeStyle;rounded=0;orthogonalLoop=1;jettySize=auto;html=1;" edge="1" parent="1" source="nk5KbnTbqSaS5txyQPrg-53" target="nk5KbnTbqSaS5txyQPrg-91">
          <mxGeometry relative="1" as="geometry" />
        </mxCell>
        <mxCell id="nk5KbnTbqSaS5txyQPrg-53" value="맛집 소개" style="sketch=0;pointerEvents=1;shadow=0;dashed=0;html=1;strokeColor=none;fillColor=#505050;labelPosition=center;verticalLabelPosition=bottom;verticalAlign=top;outlineConnect=0;align=center;shape=mxgraph.office.devices.cell_phone_iphone_standalone;" vertex="1" parent="1">
          <mxGeometry x="190" y="960" width="25" height="42" as="geometry" />
        </mxCell>
        <mxCell id="nk5KbnTbqSaS5txyQPrg-56" value="게시글 작성" style="sketch=0;pointerEvents=1;shadow=0;dashed=0;html=1;strokeColor=none;fillColor=#505050;labelPosition=center;verticalLabelPosition=bottom;verticalAlign=top;outlineConnect=0;align=center;shape=mxgraph.office.devices.cell_phone_iphone_standalone;" vertex="1" parent="1">
          <mxGeometry x="370" y="1230" width="25" height="42" as="geometry" />
        </mxCell>
        <mxCell id="nk5KbnTbqSaS5txyQPrg-96" style="edgeStyle=orthogonalEdgeStyle;rounded=0;orthogonalLoop=1;jettySize=auto;html=1;" edge="1" parent="1" source="nk5KbnTbqSaS5txyQPrg-57" target="nk5KbnTbqSaS5txyQPrg-56">
          <mxGeometry relative="1" as="geometry">
            <Array as="points">
              <mxPoint x="340" y="1311" />
              <mxPoint x="340" y="1251" />
            </Array>
          </mxGeometry>
        </mxCell>
        <mxCell id="nk5KbnTbqSaS5txyQPrg-97" style="edgeStyle=orthogonalEdgeStyle;rounded=0;orthogonalLoop=1;jettySize=auto;html=1;" edge="1" parent="1" source="nk5KbnTbqSaS5txyQPrg-57" target="nk5KbnTbqSaS5txyQPrg-58">
          <mxGeometry relative="1" as="geometry">
            <Array as="points">
              <mxPoint x="340" y="1311" />
              <mxPoint x="340" y="1353" />
            </Array>
          </mxGeometry>
        </mxCell>
        <mxCell id="nk5KbnTbqSaS5txyQPrg-57" value="게시글 리스트" style="sketch=0;pointerEvents=1;shadow=0;dashed=0;html=1;strokeColor=none;fillColor=#505050;labelPosition=center;verticalLabelPosition=bottom;verticalAlign=top;outlineConnect=0;align=center;shape=mxgraph.office.devices.cell_phone_iphone_standalone;" vertex="1" parent="1">
          <mxGeometry x="280" y="1290" width="25" height="42" as="geometry" />
        </mxCell>
        <mxCell id="nk5KbnTbqSaS5txyQPrg-58" value="덧글 작성" style="sketch=0;pointerEvents=1;shadow=0;dashed=0;html=1;strokeColor=none;fillColor=#505050;labelPosition=center;verticalLabelPosition=bottom;verticalAlign=top;outlineConnect=0;align=center;shape=mxgraph.office.devices.cell_phone_iphone_standalone;" vertex="1" parent="1">
          <mxGeometry x="370" y="1332" width="25" height="42" as="geometry" />
        </mxCell>
        <mxCell id="nk5KbnTbqSaS5txyQPrg-71" style="edgeStyle=orthogonalEdgeStyle;rounded=0;orthogonalLoop=1;jettySize=auto;html=1;" edge="1" parent="1" source="nk5KbnTbqSaS5txyQPrg-59" target="nk5KbnTbqSaS5txyQPrg-11">
          <mxGeometry relative="1" as="geometry">
            <Array as="points">
              <mxPoint x="140" y="293" />
              <mxPoint x="140" y="146" />
            </Array>
          </mxGeometry>
        </mxCell>
        <mxCell id="nk5KbnTbqSaS5txyQPrg-72" style="edgeStyle=orthogonalEdgeStyle;rounded=0;orthogonalLoop=1;jettySize=auto;html=1;" edge="1" parent="1" source="nk5KbnTbqSaS5txyQPrg-59" target="nk5KbnTbqSaS5txyQPrg-61">
          <mxGeometry relative="1" as="geometry">
            <Array as="points">
              <mxPoint x="140" y="293" />
              <mxPoint x="140" y="251" />
            </Array>
          </mxGeometry>
        </mxCell>
        <mxCell id="nk5KbnTbqSaS5txyQPrg-73" style="edgeStyle=orthogonalEdgeStyle;rounded=0;orthogonalLoop=1;jettySize=auto;html=1;" edge="1" parent="1" source="nk5KbnTbqSaS5txyQPrg-59" target="nk5KbnTbqSaS5txyQPrg-62">
          <mxGeometry relative="1" as="geometry">
            <Array as="points">
              <mxPoint x="140" y="293" />
              <mxPoint x="140" y="353" />
            </Array>
          </mxGeometry>
        </mxCell>
        <mxCell id="nk5KbnTbqSaS5txyQPrg-74" style="edgeStyle=orthogonalEdgeStyle;rounded=0;orthogonalLoop=1;jettySize=auto;html=1;" edge="1" parent="1" source="nk5KbnTbqSaS5txyQPrg-59" target="nk5KbnTbqSaS5txyQPrg-64">
          <mxGeometry relative="1" as="geometry">
            <Array as="points">
              <mxPoint x="140" y="293" />
              <mxPoint x="140" y="441" />
            </Array>
          </mxGeometry>
        </mxCell>
        <mxCell id="nk5KbnTbqSaS5txyQPrg-85" value="" style="edgeStyle=orthogonalEdgeStyle;rounded=0;orthogonalLoop=1;jettySize=auto;html=1;" edge="1" parent="1" source="nk5KbnTbqSaS5txyQPrg-59" target="nk5KbnTbqSaS5txyQPrg-84">
          <mxGeometry relative="1" as="geometry">
            <Array as="points">
              <mxPoint x="140" y="293" />
              <mxPoint x="140" y="531" />
            </Array>
          </mxGeometry>
        </mxCell>
        <object label="햄버거" id="nk5KbnTbqSaS5txyQPrg-59">
          <mxCell style="sketch=0;pointerEvents=1;shadow=0;dashed=0;html=1;strokeColor=none;fillColor=#505050;labelPosition=center;verticalLabelPosition=bottom;verticalAlign=top;outlineConnect=0;align=center;shape=mxgraph.office.devices.cell_phone_iphone_standalone;" vertex="1" parent="1">
            <mxGeometry x="80" y="272" width="25" height="42" as="geometry" />
          </mxCell>
        </object>
        <mxCell id="nk5KbnTbqSaS5txyQPrg-66" value="" style="edgeStyle=orthogonalEdgeStyle;rounded=0;orthogonalLoop=1;jettySize=auto;html=1;" edge="1" parent="1" source="nk5KbnTbqSaS5txyQPrg-61" target="nk5KbnTbqSaS5txyQPrg-65">
          <mxGeometry relative="1" as="geometry" />
        </mxCell>
        <object label="My 일정" id="nk5KbnTbqSaS5txyQPrg-61">
          <mxCell style="sketch=0;pointerEvents=1;shadow=0;dashed=0;html=1;strokeColor=none;fillColor=#505050;labelPosition=center;verticalLabelPosition=bottom;verticalAlign=top;outlineConnect=0;align=center;shape=mxgraph.office.devices.cell_phone_iphone_standalone;" vertex="1" parent="1">
            <mxGeometry x="180" y="230" width="25" height="42" as="geometry" />
          </mxCell>
        </object>
        <mxCell id="nk5KbnTbqSaS5txyQPrg-68" value="" style="edgeStyle=orthogonalEdgeStyle;rounded=0;orthogonalLoop=1;jettySize=auto;html=1;" edge="1" parent="1" source="nk5KbnTbqSaS5txyQPrg-62" target="nk5KbnTbqSaS5txyQPrg-67">
          <mxGeometry relative="1" as="geometry" />
        </mxCell>
        <object label="My 코멘트" id="nk5KbnTbqSaS5txyQPrg-62">
          <mxCell style="sketch=0;pointerEvents=1;shadow=0;dashed=0;html=1;strokeColor=none;fillColor=#505050;labelPosition=center;verticalLabelPosition=bottom;verticalAlign=top;outlineConnect=0;align=center;shape=mxgraph.office.devices.cell_phone_iphone_standalone;" vertex="1" parent="1">
            <mxGeometry x="180" y="332" width="25" height="42" as="geometry" />
          </mxCell>
        </object>
        <mxCell id="nk5KbnTbqSaS5txyQPrg-70" value="" style="edgeStyle=orthogonalEdgeStyle;rounded=0;orthogonalLoop=1;jettySize=auto;html=1;" edge="1" parent="1" source="nk5KbnTbqSaS5txyQPrg-64" target="nk5KbnTbqSaS5txyQPrg-69">
          <mxGeometry relative="1" as="geometry" />
        </mxCell>
        <object label="My 톡" id="nk5KbnTbqSaS5txyQPrg-64">
          <mxCell style="sketch=0;pointerEvents=1;shadow=0;dashed=0;html=1;strokeColor=none;fillColor=#505050;labelPosition=center;verticalLabelPosition=bottom;verticalAlign=top;outlineConnect=0;align=center;shape=mxgraph.office.devices.cell_phone_iphone_standalone;" vertex="1" parent="1">
            <mxGeometry x="180" y="420" width="25" height="42" as="geometry" />
          </mxCell>
        </object>
        <object label="일정 세부 페이지" id="nk5KbnTbqSaS5txyQPrg-65">
          <mxCell style="sketch=0;pointerEvents=1;shadow=0;dashed=0;html=1;strokeColor=none;fillColor=#505050;labelPosition=center;verticalLabelPosition=bottom;verticalAlign=top;outlineConnect=0;align=center;shape=mxgraph.office.devices.cell_phone_iphone_standalone;" vertex="1" parent="1">
            <mxGeometry x="270" y="230" width="25" height="42" as="geometry" />
          </mxCell>
        </object>
        <mxCell id="nk5KbnTbqSaS5txyQPrg-76" value="" style="edgeStyle=orthogonalEdgeStyle;rounded=0;orthogonalLoop=1;jettySize=auto;html=1;" edge="1" parent="1" source="nk5KbnTbqSaS5txyQPrg-67" target="nk5KbnTbqSaS5txyQPrg-75">
          <mxGeometry relative="1" as="geometry" />
        </mxCell>
        <object label="자신이 쓴 덧글&lt;br&gt;모아보기" id="nk5KbnTbqSaS5txyQPrg-67">
          <mxCell style="sketch=0;pointerEvents=1;shadow=0;dashed=0;html=1;strokeColor=none;fillColor=#505050;labelPosition=center;verticalLabelPosition=bottom;verticalAlign=top;outlineConnect=0;align=center;shape=mxgraph.office.devices.cell_phone_iphone_standalone;" vertex="1" parent="1">
            <mxGeometry x="270" y="332" width="25" height="42" as="geometry" />
          </mxCell>
        </object>
        <mxCell id="nk5KbnTbqSaS5txyQPrg-78" value="" style="edgeStyle=orthogonalEdgeStyle;rounded=0;orthogonalLoop=1;jettySize=auto;html=1;" edge="1" parent="1" source="nk5KbnTbqSaS5txyQPrg-69" target="nk5KbnTbqSaS5txyQPrg-77">
          <mxGeometry relative="1" as="geometry" />
        </mxCell>
        <object label="자신이 쓴 게시글&lt;br&gt;모아보기" id="nk5KbnTbqSaS5txyQPrg-69">
          <mxCell style="sketch=0;pointerEvents=1;shadow=0;dashed=0;html=1;strokeColor=none;fillColor=#505050;labelPosition=center;verticalLabelPosition=bottom;verticalAlign=top;outlineConnect=0;align=center;shape=mxgraph.office.devices.cell_phone_iphone_standalone;" vertex="1" parent="1">
            <mxGeometry x="270" y="420" width="25" height="42" as="geometry" />
          </mxCell>
        </object>
        <object label="덧글을 단 게시글" id="nk5KbnTbqSaS5txyQPrg-75">
          <mxCell style="sketch=0;pointerEvents=1;shadow=0;dashed=0;html=1;strokeColor=none;fillColor=#505050;labelPosition=center;verticalLabelPosition=bottom;verticalAlign=top;outlineConnect=0;align=center;shape=mxgraph.office.devices.cell_phone_iphone_standalone;" vertex="1" parent="1">
            <mxGeometry x="360" y="332" width="25" height="42" as="geometry" />
          </mxCell>
        </object>
        <object label="해당 게시글" id="nk5KbnTbqSaS5txyQPrg-77">
          <mxCell style="sketch=0;pointerEvents=1;shadow=0;dashed=0;html=1;strokeColor=none;fillColor=#505050;labelPosition=center;verticalLabelPosition=bottom;verticalAlign=top;outlineConnect=0;align=center;shape=mxgraph.office.devices.cell_phone_iphone_standalone;" vertex="1" parent="1">
            <mxGeometry x="360" y="420" width="25" height="42" as="geometry" />
          </mxCell>
        </object>
        <object label="공지사항" id="nk5KbnTbqSaS5txyQPrg-84">
          <mxCell style="sketch=0;pointerEvents=1;shadow=0;dashed=0;html=1;strokeColor=none;fillColor=#505050;labelPosition=center;verticalLabelPosition=bottom;verticalAlign=top;outlineConnect=0;align=center;shape=mxgraph.office.devices.cell_phone_iphone_standalone;" vertex="1" parent="1">
            <mxGeometry x="180" y="510" width="25" height="42" as="geometry" />
          </mxCell>
        </object>
        <mxCell id="nk5KbnTbqSaS5txyQPrg-87" value="구글 지도" style="sketch=0;pointerEvents=1;shadow=0;dashed=0;html=1;strokeColor=none;fillColor=#505050;labelPosition=center;verticalLabelPosition=bottom;verticalAlign=top;outlineConnect=0;align=center;shape=mxgraph.office.devices.cell_phone_iphone_standalone;" vertex="1" parent="1">
          <mxGeometry x="270" y="790" width="25" height="42" as="geometry" />
        </mxCell>
        <mxCell id="nk5KbnTbqSaS5txyQPrg-94" value="" style="edgeStyle=orthogonalEdgeStyle;rounded=0;orthogonalLoop=1;jettySize=auto;html=1;" edge="1" parent="1" source="nk5KbnTbqSaS5txyQPrg-89" target="nk5KbnTbqSaS5txyQPrg-93">
          <mxGeometry relative="1" as="geometry">
            <Array as="points">
              <mxPoint x="350" y="891" />
              <mxPoint x="350" y="933" />
            </Array>
          </mxGeometry>
        </mxCell>
        <mxCell id="nk5KbnTbqSaS5txyQPrg-89" value="관광 명소 &lt;br&gt;상세 페이지" style="sketch=0;pointerEvents=1;shadow=0;dashed=0;html=1;strokeColor=none;fillColor=#505050;labelPosition=center;verticalLabelPosition=bottom;verticalAlign=top;outlineConnect=0;align=center;shape=mxgraph.office.devices.cell_phone_iphone_standalone;" vertex="1" parent="1">
          <mxGeometry x="270" y="870" width="25" height="42" as="geometry" />
        </mxCell>
        <mxCell id="nk5KbnTbqSaS5txyQPrg-95" value="기능" style="edgeStyle=orthogonalEdgeStyle;rounded=0;orthogonalLoop=1;jettySize=auto;html=1;" edge="1" parent="1" source="nk5KbnTbqSaS5txyQPrg-91" target="nk5KbnTbqSaS5txyQPrg-93">
          <mxGeometry x="0.6622" relative="1" as="geometry">
            <Array as="points">
              <mxPoint x="350" y="981" />
              <mxPoint x="350" y="933" />
            </Array>
            <mxPoint as="offset" />
          </mxGeometry>
        </mxCell>
        <mxCell id="nk5KbnTbqSaS5txyQPrg-91" value="맛집 &lt;br&gt;상세 페이지" style="sketch=0;pointerEvents=1;shadow=0;dashed=0;html=1;strokeColor=none;fillColor=#505050;labelPosition=center;verticalLabelPosition=bottom;verticalAlign=top;outlineConnect=0;align=center;shape=mxgraph.office.devices.cell_phone_iphone_standalone;" vertex="1" parent="1">
          <mxGeometry x="270" y="960" width="25" height="42" as="geometry" />
        </mxCell>
        <mxCell id="nk5KbnTbqSaS5txyQPrg-93" value="리뷰(별점 + 내용)" style="sketch=0;pointerEvents=1;shadow=0;dashed=0;html=1;strokeColor=none;fillColor=#505050;labelPosition=center;verticalLabelPosition=bottom;verticalAlign=top;outlineConnect=0;align=center;shape=mxgraph.office.devices.cell_phone_iphone_standalone;" vertex="1" parent="1">
          <mxGeometry x="395" y="912" width="25" height="42" as="geometry" />
        </mxCell>
        <mxCell id="nk5KbnTbqSaS5txyQPrg-98" value="명소/맛집&lt;br&gt;DB전체 검색" style="sketch=0;pointerEvents=1;shadow=0;dashed=0;html=1;strokeColor=none;fillColor=#505050;labelPosition=center;verticalLabelPosition=bottom;verticalAlign=top;outlineConnect=0;align=center;shape=mxgraph.office.devices.cell_phone_iphone_standalone;" vertex="1" parent="1">
          <mxGeometry x="280" y="1200" width="25" height="42" as="geometry" />
        </mxCell>
        <mxCell id="nk5KbnTbqSaS5txyQPrg-106" value="" style="edgeStyle=orthogonalEdgeStyle;rounded=0;orthogonalLoop=1;jettySize=auto;html=1;" edge="1" parent="1" source="nk5KbnTbqSaS5txyQPrg-102" target="nk5KbnTbqSaS5txyQPrg-105">
          <mxGeometry relative="1" as="geometry">
            <Array as="points">
              <mxPoint x="340" y="1491" />
              <mxPoint x="340" y="1551" />
            </Array>
          </mxGeometry>
        </mxCell>
        <mxCell id="nk5KbnTbqSaS5txyQPrg-108" value="" style="edgeStyle=orthogonalEdgeStyle;rounded=0;orthogonalLoop=1;jettySize=auto;html=1;" edge="1" parent="1" source="nk5KbnTbqSaS5txyQPrg-102" target="nk5KbnTbqSaS5txyQPrg-107">
          <mxGeometry relative="1" as="geometry">
            <Array as="points">
              <mxPoint x="340" y="1491" />
              <mxPoint x="340" y="1445" />
            </Array>
          </mxGeometry>
        </mxCell>
        <mxCell id="nk5KbnTbqSaS5txyQPrg-102" value="지역별&lt;br&gt;관광지/맛집" style="sketch=0;pointerEvents=1;shadow=0;dashed=0;html=1;strokeColor=none;fillColor=#505050;labelPosition=center;verticalLabelPosition=bottom;verticalAlign=top;outlineConnect=0;align=center;shape=mxgraph.office.devices.cell_phone_iphone_standalone;" vertex="1" parent="1">
          <mxGeometry x="280" y="1470" width="25" height="42" as="geometry" />
        </mxCell>
        <mxCell id="nk5KbnTbqSaS5txyQPrg-105" value="관광지 &lt;br&gt;상세보기" style="sketch=0;pointerEvents=1;shadow=0;dashed=0;html=1;strokeColor=none;fillColor=#505050;labelPosition=center;verticalLabelPosition=bottom;verticalAlign=top;outlineConnect=0;align=center;shape=mxgraph.office.devices.cell_phone_iphone_standalone;" vertex="1" parent="1">
          <mxGeometry x="370" y="1530" width="25" height="42" as="geometry" />
        </mxCell>
        <mxCell id="nk5KbnTbqSaS5txyQPrg-107" value="맛집&lt;br&gt;상세보기" style="sketch=0;pointerEvents=1;shadow=0;dashed=0;html=1;strokeColor=none;fillColor=#505050;labelPosition=center;verticalLabelPosition=bottom;verticalAlign=top;outlineConnect=0;align=center;shape=mxgraph.office.devices.cell_phone_iphone_standalone;" vertex="1" parent="1">
          <mxGeometry x="370" y="1424" width="25" height="42" as="geometry" />
        </mxCell>
        <mxCell id="nk5KbnTbqSaS5txyQPrg-111" value="햄버거" style="swimlane;fontStyle=0;childLayout=stackLayout;horizontal=1;startSize=26;fillColor=none;horizontalStack=0;resizeParent=1;resizeParentMax=0;resizeLast=0;collapsible=1;marginBottom=0;" vertex="1" parent="1">
          <mxGeometry x="790" y="158" width="140" height="156" as="geometry">
            <mxRectangle x="490" y="241" width="70" height="26" as="alternateBounds" />
          </mxGeometry>
        </mxCell>
        <mxCell id="nk5KbnTbqSaS5txyQPrg-112" value="로그인 / 로그아웃" style="text;strokeColor=none;fillColor=none;align=left;verticalAlign=top;spacingLeft=4;spacingRight=4;overflow=hidden;rotatable=0;points=[[0,0.5],[1,0.5]];portConstraint=eastwest;" vertex="1" parent="nk5KbnTbqSaS5txyQPrg-111">
          <mxGeometry y="26" width="140" height="26" as="geometry" />
        </mxCell>
        <mxCell id="nk5KbnTbqSaS5txyQPrg-113" value="My 일정" style="text;strokeColor=none;fillColor=none;align=left;verticalAlign=top;spacingLeft=4;spacingRight=4;overflow=hidden;rotatable=0;points=[[0,0.5],[1,0.5]];portConstraint=eastwest;" vertex="1" parent="nk5KbnTbqSaS5txyQPrg-111">
          <mxGeometry y="52" width="140" height="26" as="geometry" />
        </mxCell>
        <mxCell id="nk5KbnTbqSaS5txyQPrg-117" value="My 코맨트" style="text;strokeColor=none;fillColor=none;align=left;verticalAlign=top;spacingLeft=4;spacingRight=4;overflow=hidden;rotatable=0;points=[[0,0.5],[1,0.5]];portConstraint=eastwest;" vertex="1" parent="nk5KbnTbqSaS5txyQPrg-111">
          <mxGeometry y="78" width="140" height="26" as="geometry" />
        </mxCell>
        <mxCell id="nk5KbnTbqSaS5txyQPrg-114" value="My 톡" style="text;strokeColor=none;fillColor=none;align=left;verticalAlign=top;spacingLeft=4;spacingRight=4;overflow=hidden;rotatable=0;points=[[0,0.5],[1,0.5]];portConstraint=eastwest;" vertex="1" parent="nk5KbnTbqSaS5txyQPrg-111">
          <mxGeometry y="104" width="140" height="26" as="geometry" />
        </mxCell>
        <mxCell id="nk5KbnTbqSaS5txyQPrg-128" value="공지사항" style="text;strokeColor=none;fillColor=none;align=left;verticalAlign=top;spacingLeft=4;spacingRight=4;overflow=hidden;rotatable=0;points=[[0,0.5],[1,0.5]];portConstraint=eastwest;" vertex="1" parent="nk5KbnTbqSaS5txyQPrg-111">
          <mxGeometry y="130" width="140" height="26" as="geometry" />
        </mxCell>
        <mxCell id="nk5KbnTbqSaS5txyQPrg-119" value="로그인 페이지" style="swimlane;fontStyle=0;childLayout=stackLayout;horizontal=1;startSize=26;fillColor=none;horizontalStack=0;resizeParent=1;resizeParentMax=0;resizeLast=0;collapsible=1;marginBottom=0;" vertex="1" parent="1">
          <mxGeometry x="1300" y="216" width="140" height="78" as="geometry" />
        </mxCell>
        <mxCell id="nk5KbnTbqSaS5txyQPrg-120" value="로그인" style="text;strokeColor=none;fillColor=none;align=left;verticalAlign=top;spacingLeft=4;spacingRight=4;overflow=hidden;rotatable=0;points=[[0,0.5],[1,0.5]];portConstraint=eastwest;" vertex="1" parent="nk5KbnTbqSaS5txyQPrg-119">
          <mxGeometry y="26" width="140" height="26" as="geometry" />
        </mxCell>
        <mxCell id="nk5KbnTbqSaS5txyQPrg-208" style="edgeStyle=orthogonalEdgeStyle;rounded=0;orthogonalLoop=1;jettySize=auto;html=1;entryX=0.5;entryY=0;entryDx=0;entryDy=0;" edge="1" parent="nk5KbnTbqSaS5txyQPrg-119" source="nk5KbnTbqSaS5txyQPrg-121" target="nk5KbnTbqSaS5txyQPrg-119">
          <mxGeometry relative="1" as="geometry">
            <Array as="points">
              <mxPoint x="180" y="65" />
              <mxPoint x="180" y="-36" />
              <mxPoint x="70" y="-36" />
            </Array>
          </mxGeometry>
        </mxCell>
        <mxCell id="nk5KbnTbqSaS5txyQPrg-121" value="회원가입" style="text;strokeColor=none;fillColor=none;align=left;verticalAlign=top;spacingLeft=4;spacingRight=4;overflow=hidden;rotatable=0;points=[[0,0.5],[1,0.5]];portConstraint=eastwest;" vertex="1" parent="nk5KbnTbqSaS5txyQPrg-119">
          <mxGeometry y="52" width="140" height="26" as="geometry" />
        </mxCell>
        <mxCell id="nk5KbnTbqSaS5txyQPrg-130" style="edgeStyle=orthogonalEdgeStyle;rounded=0;orthogonalLoop=1;jettySize=auto;html=1;entryX=0.5;entryY=0;entryDx=0;entryDy=0;" edge="1" parent="1" source="nk5KbnTbqSaS5txyQPrg-112" target="nk5KbnTbqSaS5txyQPrg-119">
          <mxGeometry relative="1" as="geometry">
            <mxPoint x="1400" y="120" as="targetPoint" />
          </mxGeometry>
        </mxCell>
        <mxCell id="nk5KbnTbqSaS5txyQPrg-131" value="매인 화면" style="swimlane;fontStyle=0;childLayout=stackLayout;horizontal=1;startSize=26;fillColor=none;horizontalStack=0;resizeParent=1;resizeParentMax=0;resizeLast=0;collapsible=1;marginBottom=0;" vertex="1" parent="1">
          <mxGeometry x="515" y="94" width="140" height="104" as="geometry" />
        </mxCell>
        <mxCell id="nk5KbnTbqSaS5txyQPrg-132" value="햄버거" style="text;strokeColor=none;fillColor=none;align=left;verticalAlign=top;spacingLeft=4;spacingRight=4;overflow=hidden;rotatable=0;points=[[0,0.5],[1,0.5]];portConstraint=eastwest;" vertex="1" parent="nk5KbnTbqSaS5txyQPrg-131">
          <mxGeometry y="26" width="140" height="26" as="geometry" />
        </mxCell>
        <mxCell id="nk5KbnTbqSaS5txyQPrg-133" value="메인 페이지" style="text;strokeColor=none;fillColor=none;align=left;verticalAlign=top;spacingLeft=4;spacingRight=4;overflow=hidden;rotatable=0;points=[[0,0.5],[1,0.5]];portConstraint=eastwest;" vertex="1" parent="nk5KbnTbqSaS5txyQPrg-131">
          <mxGeometry y="52" width="140" height="26" as="geometry" />
        </mxCell>
        <mxCell id="nk5KbnTbqSaS5txyQPrg-134" value="하단 네비게이션" style="text;strokeColor=none;fillColor=none;align=left;verticalAlign=top;spacingLeft=4;spacingRight=4;overflow=hidden;rotatable=0;points=[[0,0.5],[1,0.5]];portConstraint=eastwest;" vertex="1" parent="nk5KbnTbqSaS5txyQPrg-131">
          <mxGeometry y="78" width="140" height="26" as="geometry" />
        </mxCell>
        <mxCell id="nk5KbnTbqSaS5txyQPrg-136" style="edgeStyle=orthogonalEdgeStyle;rounded=0;orthogonalLoop=1;jettySize=auto;html=1;entryX=0.5;entryY=0;entryDx=0;entryDy=0;" edge="1" parent="1" source="nk5KbnTbqSaS5txyQPrg-132" target="nk5KbnTbqSaS5txyQPrg-111">
          <mxGeometry relative="1" as="geometry" />
        </mxCell>
        <mxCell id="nk5KbnTbqSaS5txyQPrg-142" value="메인 페이지" style="swimlane;fontStyle=0;childLayout=stackLayout;horizontal=1;startSize=26;fillColor=none;horizontalStack=0;resizeParent=1;resizeParentMax=0;resizeLast=0;collapsible=1;marginBottom=0;" vertex="1" parent="1">
          <mxGeometry x="790" y="390" width="140" height="130" as="geometry" />
        </mxCell>
        <mxCell id="nk5KbnTbqSaS5txyQPrg-143" value="날씨 한줄 정보(크롤링)" style="text;strokeColor=none;fillColor=none;align=left;verticalAlign=top;spacingLeft=4;spacingRight=4;overflow=hidden;rotatable=0;points=[[0,0.5],[1,0.5]];portConstraint=eastwest;" vertex="1" parent="nk5KbnTbqSaS5txyQPrg-142">
          <mxGeometry y="26" width="140" height="26" as="geometry" />
        </mxCell>
        <mxCell id="nk5KbnTbqSaS5txyQPrg-145" value="관광명소 소개" style="text;strokeColor=none;fillColor=none;align=left;verticalAlign=top;spacingLeft=4;spacingRight=4;overflow=hidden;rotatable=0;points=[[0,0.5],[1,0.5]];portConstraint=eastwest;" vertex="1" parent="nk5KbnTbqSaS5txyQPrg-142">
          <mxGeometry y="52" width="140" height="26" as="geometry" />
        </mxCell>
        <mxCell id="nk5KbnTbqSaS5txyQPrg-146" value="맛집 소개" style="text;strokeColor=none;fillColor=none;align=left;verticalAlign=top;spacingLeft=4;spacingRight=4;overflow=hidden;rotatable=0;points=[[0,0.5],[1,0.5]];portConstraint=eastwest;" vertex="1" parent="nk5KbnTbqSaS5txyQPrg-142">
          <mxGeometry y="78" width="140" height="26" as="geometry" />
        </mxCell>
        <mxCell id="nk5KbnTbqSaS5txyQPrg-144" value="장소 검색" style="text;strokeColor=none;fillColor=none;align=left;verticalAlign=top;spacingLeft=4;spacingRight=4;overflow=hidden;rotatable=0;points=[[0,0.5],[1,0.5]];portConstraint=eastwest;" vertex="1" parent="nk5KbnTbqSaS5txyQPrg-142">
          <mxGeometry y="104" width="140" height="26" as="geometry" />
        </mxCell>
        <mxCell id="nk5KbnTbqSaS5txyQPrg-156" style="edgeStyle=orthogonalEdgeStyle;rounded=0;orthogonalLoop=1;jettySize=auto;html=1;entryX=0.5;entryY=0;entryDx=0;entryDy=0;" edge="1" parent="1" source="nk5KbnTbqSaS5txyQPrg-133" target="nk5KbnTbqSaS5txyQPrg-142">
          <mxGeometry relative="1" as="geometry">
            <Array as="points">
              <mxPoint x="720" y="159" />
              <mxPoint x="720" y="350" />
              <mxPoint x="860" y="350" />
            </Array>
          </mxGeometry>
        </mxCell>
        <mxCell id="nk5KbnTbqSaS5txyQPrg-159" value="하단 네비게이션" style="swimlane;fontStyle=0;childLayout=stackLayout;horizontal=1;startSize=26;fillColor=none;horizontalStack=0;resizeParent=1;resizeParentMax=0;resizeLast=0;collapsible=1;marginBottom=0;" vertex="1" parent="1">
          <mxGeometry x="610" y="559" width="140" height="156" as="geometry" />
        </mxCell>
        <mxCell id="nk5KbnTbqSaS5txyQPrg-161" value="홈" style="text;strokeColor=none;fillColor=none;align=left;verticalAlign=top;spacingLeft=4;spacingRight=4;overflow=hidden;rotatable=0;points=[[0,0.5],[1,0.5]];portConstraint=eastwest;" vertex="1" parent="nk5KbnTbqSaS5txyQPrg-159">
          <mxGeometry y="26" width="140" height="26" as="geometry" />
        </mxCell>
        <mxCell id="nk5KbnTbqSaS5txyQPrg-165" value="검색" style="text;strokeColor=none;fillColor=none;align=left;verticalAlign=top;spacingLeft=4;spacingRight=4;overflow=hidden;rotatable=0;points=[[0,0.5],[1,0.5]];portConstraint=eastwest;" vertex="1" parent="nk5KbnTbqSaS5txyQPrg-159">
          <mxGeometry y="52" width="140" height="26" as="geometry" />
        </mxCell>
        <mxCell id="nk5KbnTbqSaS5txyQPrg-166" value="톡" style="text;strokeColor=none;fillColor=none;align=left;verticalAlign=top;spacingLeft=4;spacingRight=4;overflow=hidden;rotatable=0;points=[[0,0.5],[1,0.5]];portConstraint=eastwest;" vertex="1" parent="nk5KbnTbqSaS5txyQPrg-159">
          <mxGeometry y="78" width="140" height="26" as="geometry" />
        </mxCell>
        <mxCell id="nk5KbnTbqSaS5txyQPrg-162" value="핫플" style="text;strokeColor=none;fillColor=none;align=left;verticalAlign=top;spacingLeft=4;spacingRight=4;overflow=hidden;rotatable=0;points=[[0,0.5],[1,0.5]];portConstraint=eastwest;whiteSpace=wrap;" vertex="1" parent="nk5KbnTbqSaS5txyQPrg-159">
          <mxGeometry y="104" width="140" height="26" as="geometry" />
        </mxCell>
        <mxCell id="nk5KbnTbqSaS5txyQPrg-164" value="내 정보" style="text;strokeColor=none;fillColor=none;align=left;verticalAlign=top;spacingLeft=4;spacingRight=4;overflow=hidden;rotatable=0;points=[[0,0.5],[1,0.5]];portConstraint=eastwest;" vertex="1" parent="nk5KbnTbqSaS5txyQPrg-159">
          <mxGeometry y="130" width="140" height="26" as="geometry" />
        </mxCell>
        <mxCell id="nk5KbnTbqSaS5txyQPrg-169" style="edgeStyle=orthogonalEdgeStyle;rounded=0;orthogonalLoop=1;jettySize=auto;html=1;entryX=0.5;entryY=0;entryDx=0;entryDy=0;" edge="1" parent="1" source="nk5KbnTbqSaS5txyQPrg-134" target="nk5KbnTbqSaS5txyQPrg-159">
          <mxGeometry relative="1" as="geometry" />
        </mxCell>
        <mxCell id="nk5KbnTbqSaS5txyQPrg-170" style="edgeStyle=orthogonalEdgeStyle;rounded=0;orthogonalLoop=1;jettySize=auto;html=1;entryX=0.5;entryY=0;entryDx=0;entryDy=0;exitX=1;exitY=0.5;exitDx=0;exitDy=0;" edge="1" parent="1" source="nk5KbnTbqSaS5txyQPrg-161" target="nk5KbnTbqSaS5txyQPrg-142">
          <mxGeometry relative="1" as="geometry">
            <mxPoint x="720" y="380" as="targetPoint" />
            <Array as="points">
              <mxPoint x="770" y="598" />
              <mxPoint x="770" y="350" />
              <mxPoint x="860" y="350" />
            </Array>
          </mxGeometry>
        </mxCell>
        <mxCell id="nk5KbnTbqSaS5txyQPrg-174" value="갯수만 표시 or&amp;nbsp;&lt;br&gt;일정 페이지 이동&lt;br&gt;작성 덧글 모아보기&lt;br&gt;작성 게시글 모아보기" style="rounded=0;whiteSpace=wrap;html=1;" vertex="1" parent="1">
          <mxGeometry x="1080" y="219" width="120" height="60" as="geometry" />
        </mxCell>
        <mxCell id="nk5KbnTbqSaS5txyQPrg-175" style="edgeStyle=orthogonalEdgeStyle;rounded=0;orthogonalLoop=1;jettySize=auto;html=1;entryX=0;entryY=0.5;entryDx=0;entryDy=0;" edge="1" parent="1" source="nk5KbnTbqSaS5txyQPrg-113" target="nk5KbnTbqSaS5txyQPrg-174">
          <mxGeometry relative="1" as="geometry" />
        </mxCell>
        <mxCell id="nk5KbnTbqSaS5txyQPrg-176" style="edgeStyle=orthogonalEdgeStyle;rounded=0;orthogonalLoop=1;jettySize=auto;html=1;entryX=0;entryY=0.5;entryDx=0;entryDy=0;" edge="1" parent="1" source="nk5KbnTbqSaS5txyQPrg-117" target="nk5KbnTbqSaS5txyQPrg-174">
          <mxGeometry relative="1" as="geometry" />
        </mxCell>
        <mxCell id="nk5KbnTbqSaS5txyQPrg-177" style="edgeStyle=orthogonalEdgeStyle;rounded=0;orthogonalLoop=1;jettySize=auto;html=1;entryX=0;entryY=0.5;entryDx=0;entryDy=0;" edge="1" parent="1" source="nk5KbnTbqSaS5txyQPrg-114" target="nk5KbnTbqSaS5txyQPrg-174">
          <mxGeometry relative="1" as="geometry" />
        </mxCell>
        <mxCell id="nk5KbnTbqSaS5txyQPrg-178" value="공지사항 페이지" style="rounded=0;whiteSpace=wrap;html=1;" vertex="1" parent="1">
          <mxGeometry x="1080" y="291" width="120" height="20" as="geometry" />
        </mxCell>
        <mxCell id="nk5KbnTbqSaS5txyQPrg-180" style="edgeStyle=orthogonalEdgeStyle;rounded=0;orthogonalLoop=1;jettySize=auto;html=1;entryX=0;entryY=0.5;entryDx=0;entryDy=0;" edge="1" parent="1" source="nk5KbnTbqSaS5txyQPrg-128" target="nk5KbnTbqSaS5txyQPrg-178">
          <mxGeometry relative="1" as="geometry" />
        </mxCell>
        <mxCell id="nk5KbnTbqSaS5txyQPrg-187" value="날씨 정보 상세 보기 페이지 이동&lt;br&gt;(API 활용)" style="rounded=0;whiteSpace=wrap;html=1;" vertex="1" parent="1">
          <mxGeometry x="1310" y="400" width="120" height="58" as="geometry" />
        </mxCell>
        <mxCell id="nk5KbnTbqSaS5txyQPrg-189" style="edgeStyle=orthogonalEdgeStyle;rounded=0;orthogonalLoop=1;jettySize=auto;html=1;entryX=0;entryY=0.5;entryDx=0;entryDy=0;" edge="1" parent="1" source="nk5KbnTbqSaS5txyQPrg-143" target="nk5KbnTbqSaS5txyQPrg-187">
          <mxGeometry relative="1" as="geometry" />
        </mxCell>
        <mxCell id="nk5KbnTbqSaS5txyQPrg-191" style="edgeStyle=orthogonalEdgeStyle;rounded=0;orthogonalLoop=1;jettySize=auto;html=1;entryX=0.5;entryY=0;entryDx=0;entryDy=0;" edge="1" parent="1" source="nk5KbnTbqSaS5txyQPrg-120" target="nk5KbnTbqSaS5txyQPrg-142">
          <mxGeometry relative="1" as="geometry">
            <Array as="points">
              <mxPoint x="1250" y="255" />
              <mxPoint x="1250" y="350" />
              <mxPoint x="860" y="350" />
            </Array>
          </mxGeometry>
        </mxCell>
        <mxCell id="nk5KbnTbqSaS5txyQPrg-193" style="edgeStyle=orthogonalEdgeStyle;rounded=0;orthogonalLoop=1;jettySize=auto;html=1;entryX=0.5;entryY=0;entryDx=0;entryDy=0;" edge="1" parent="1" source="nk5KbnTbqSaS5txyQPrg-144" target="nk5KbnTbqSaS5txyQPrg-196">
          <mxGeometry relative="1" as="geometry">
            <mxPoint x="1070" y="455" as="targetPoint" />
          </mxGeometry>
        </mxCell>
        <mxCell id="nk5KbnTbqSaS5txyQPrg-194" style="edgeStyle=orthogonalEdgeStyle;rounded=0;orthogonalLoop=1;jettySize=auto;html=1;entryX=0.5;entryY=0;entryDx=0;entryDy=0;" edge="1" parent="1" source="nk5KbnTbqSaS5txyQPrg-145" target="nk5KbnTbqSaS5txyQPrg-197">
          <mxGeometry relative="1" as="geometry">
            <mxPoint x="1080" y="530" as="targetPoint" />
          </mxGeometry>
        </mxCell>
        <mxCell id="nk5KbnTbqSaS5txyQPrg-202" style="edgeStyle=orthogonalEdgeStyle;rounded=0;orthogonalLoop=1;jettySize=auto;html=1;entryX=0.5;entryY=0;entryDx=0;entryDy=0;" edge="1" parent="1" source="nk5KbnTbqSaS5txyQPrg-196" target="nk5KbnTbqSaS5txyQPrg-200">
          <mxGeometry relative="1" as="geometry" />
        </mxCell>
        <mxCell id="nk5KbnTbqSaS5txyQPrg-196" value="명소 / 맛집 검색" style="rounded=0;whiteSpace=wrap;html=1;" vertex="1" parent="1">
          <mxGeometry x="1070" y="534" width="120" height="60" as="geometry" />
        </mxCell>
        <mxCell id="nk5KbnTbqSaS5txyQPrg-201" style="edgeStyle=orthogonalEdgeStyle;rounded=0;orthogonalLoop=1;jettySize=auto;html=1;entryX=0.5;entryY=0;entryDx=0;entryDy=0;" edge="1" parent="1" source="nk5KbnTbqSaS5txyQPrg-197" target="nk5KbnTbqSaS5txyQPrg-200">
          <mxGeometry relative="1" as="geometry" />
        </mxCell>
        <mxCell id="nk5KbnTbqSaS5txyQPrg-197" value="명소 / 맛집 DB에서&lt;br&gt;갤리러(?)로 뿌려주기" style="rounded=0;whiteSpace=wrap;html=1;" vertex="1" parent="1">
          <mxGeometry x="1200" y="534" width="120" height="60" as="geometry" />
        </mxCell>
        <mxCell id="nk5KbnTbqSaS5txyQPrg-198" style="edgeStyle=orthogonalEdgeStyle;rounded=0;orthogonalLoop=1;jettySize=auto;html=1;entryX=0.5;entryY=0;entryDx=0;entryDy=0;" edge="1" parent="1" source="nk5KbnTbqSaS5txyQPrg-146" target="nk5KbnTbqSaS5txyQPrg-197">
          <mxGeometry relative="1" as="geometry" />
        </mxCell>
        <mxCell id="nk5KbnTbqSaS5txyQPrg-200" value="명소 / 맛집 &lt;br&gt;상세보기 페이지&lt;br&gt;인스타 사진 크롤링&lt;br&gt;별점 / 덧글 기능 추가" style="rounded=0;whiteSpace=wrap;html=1;" vertex="1" parent="1">
          <mxGeometry x="1140" y="648" width="120" height="60" as="geometry" />
        </mxCell>
        <mxCell id="nk5KbnTbqSaS5txyQPrg-203" style="edgeStyle=orthogonalEdgeStyle;rounded=0;orthogonalLoop=1;jettySize=auto;html=1;entryX=0;entryY=0.5;entryDx=0;entryDy=0;exitX=1;exitY=0.5;exitDx=0;exitDy=0;" edge="1" parent="1" source="nk5KbnTbqSaS5txyQPrg-165" target="nk5KbnTbqSaS5txyQPrg-196">
          <mxGeometry relative="1" as="geometry" />
        </mxCell>
        <mxCell id="nk5KbnTbqSaS5txyQPrg-204" value="자유 게시판&lt;br&gt;게시글 작성&lt;br&gt;덧글 작성 기능 구현" style="rounded=0;whiteSpace=wrap;html=1;" vertex="1" parent="1">
          <mxGeometry x="940" y="607" width="120" height="60" as="geometry" />
        </mxCell>
        <mxCell id="nk5KbnTbqSaS5txyQPrg-206" style="edgeStyle=orthogonalEdgeStyle;rounded=0;orthogonalLoop=1;jettySize=auto;html=1;entryX=0;entryY=0.5;entryDx=0;entryDy=0;" edge="1" parent="1" source="nk5KbnTbqSaS5txyQPrg-166" target="nk5KbnTbqSaS5txyQPrg-204">
          <mxGeometry relative="1" as="geometry">
            <Array as="points">
              <mxPoint x="870" y="650" />
              <mxPoint x="870" y="637" />
            </Array>
          </mxGeometry>
        </mxCell>
        <mxCell id="nk5KbnTbqSaS5txyQPrg-211" style="edgeStyle=orthogonalEdgeStyle;rounded=0;orthogonalLoop=1;jettySize=auto;html=1;entryX=0;entryY=0.5;entryDx=0;entryDy=0;" edge="1" parent="1" source="nk5KbnTbqSaS5txyQPrg-209" target="nk5KbnTbqSaS5txyQPrg-200">
          <mxGeometry relative="1" as="geometry" />
        </mxCell>
        <mxCell id="nk5KbnTbqSaS5txyQPrg-209" value="지역별 명소 / 맛집&lt;br&gt;리스트 출력" style="rounded=0;whiteSpace=wrap;html=1;" vertex="1" parent="1">
          <mxGeometry x="940" y="690" width="120" height="60" as="geometry" />
        </mxCell>
        <mxCell id="nk5KbnTbqSaS5txyQPrg-210" style="edgeStyle=orthogonalEdgeStyle;rounded=0;orthogonalLoop=1;jettySize=auto;html=1;entryX=0;entryY=0.5;entryDx=0;entryDy=0;" edge="1" parent="1" source="nk5KbnTbqSaS5txyQPrg-162" target="nk5KbnTbqSaS5txyQPrg-209">
          <mxGeometry relative="1" as="geometry" />
        </mxCell>
        <mxCell id="nk5KbnTbqSaS5txyQPrg-212" value="내 정보" style="swimlane;fontStyle=0;childLayout=stackLayout;horizontal=1;startSize=30;horizontalStack=0;resizeParent=1;resizeParentMax=0;resizeLast=0;collapsible=1;marginBottom=0;" vertex="1" parent="1">
          <mxGeometry x="757" y="790" width="140" height="120" as="geometry" />
        </mxCell>
        <mxCell id="nk5KbnTbqSaS5txyQPrg-213" value="개인 정보 수정" style="text;strokeColor=none;fillColor=none;align=left;verticalAlign=middle;spacingLeft=4;spacingRight=4;overflow=hidden;points=[[0,0.5],[1,0.5]];portConstraint=eastwest;rotatable=0;" vertex="1" parent="nk5KbnTbqSaS5txyQPrg-212">
          <mxGeometry y="30" width="140" height="30" as="geometry" />
        </mxCell>
        <mxCell id="nk5KbnTbqSaS5txyQPrg-214" value="여행스케줄(일정)" style="text;strokeColor=none;fillColor=none;align=left;verticalAlign=middle;spacingLeft=4;spacingRight=4;overflow=hidden;points=[[0,0.5],[1,0.5]];portConstraint=eastwest;rotatable=0;" vertex="1" parent="nk5KbnTbqSaS5txyQPrg-212">
          <mxGeometry y="60" width="140" height="30" as="geometry" />
        </mxCell>
        <mxCell id="nk5KbnTbqSaS5txyQPrg-215" value="가계부-지갑(가능하다면)(" style="text;strokeColor=none;fillColor=none;align=left;verticalAlign=middle;spacingLeft=4;spacingRight=4;overflow=hidden;points=[[0,0.5],[1,0.5]];portConstraint=eastwest;rotatable=0;" vertex="1" parent="nk5KbnTbqSaS5txyQPrg-212">
          <mxGeometry y="90" width="140" height="30" as="geometry" />
        </mxCell>
        <mxCell id="nk5KbnTbqSaS5txyQPrg-216" style="edgeStyle=orthogonalEdgeStyle;rounded=0;orthogonalLoop=1;jettySize=auto;html=1;entryX=0.5;entryY=0;entryDx=0;entryDy=0;" edge="1" parent="1" source="nk5KbnTbqSaS5txyQPrg-164" target="nk5KbnTbqSaS5txyQPrg-212">
          <mxGeometry relative="1" as="geometry" />
        </mxCell>
        <mxCell id="nk5KbnTbqSaS5txyQPrg-226" style="edgeStyle=orthogonalEdgeStyle;rounded=0;orthogonalLoop=1;jettySize=auto;html=1;entryX=0;entryY=0.5;entryDx=0;entryDy=0;" edge="1" parent="1" source="nk5KbnTbqSaS5txyQPrg-217" target="nk5KbnTbqSaS5txyQPrg-225">
          <mxGeometry relative="1" as="geometry" />
        </mxCell>
        <mxCell id="nk5KbnTbqSaS5txyQPrg-217" value="여행스케줄&lt;br&gt;리스트로 구현" style="rounded=0;whiteSpace=wrap;html=1;" vertex="1" parent="1">
          <mxGeometry x="1030" y="880" width="120" height="60" as="geometry" />
        </mxCell>
        <mxCell id="nk5KbnTbqSaS5txyQPrg-218" style="edgeStyle=orthogonalEdgeStyle;rounded=0;orthogonalLoop=1;jettySize=auto;html=1;entryX=0;entryY=0.5;entryDx=0;entryDy=0;" edge="1" parent="1" source="nk5KbnTbqSaS5txyQPrg-214" target="nk5KbnTbqSaS5txyQPrg-217">
          <mxGeometry relative="1" as="geometry" />
        </mxCell>
        <mxCell id="nk5KbnTbqSaS5txyQPrg-219" value="개인 정보 수정&lt;br&gt;및&lt;br&gt;회원 탈퇴" style="rounded=0;whiteSpace=wrap;html=1;" vertex="1" parent="1">
          <mxGeometry x="1030" y="805" width="120" height="60" as="geometry" />
        </mxCell>
        <mxCell id="nk5KbnTbqSaS5txyQPrg-220" style="edgeStyle=orthogonalEdgeStyle;rounded=0;orthogonalLoop=1;jettySize=auto;html=1;exitX=1;exitY=0.5;exitDx=0;exitDy=0;" edge="1" parent="1" source="nk5KbnTbqSaS5txyQPrg-213" target="nk5KbnTbqSaS5txyQPrg-219">
          <mxGeometry relative="1" as="geometry" />
        </mxCell>
        <mxCell id="nk5KbnTbqSaS5txyQPrg-224" style="edgeStyle=orthogonalEdgeStyle;rounded=0;orthogonalLoop=1;jettySize=auto;html=1;entryX=0;entryY=0.5;entryDx=0;entryDy=0;" edge="1" parent="1" source="nk5KbnTbqSaS5txyQPrg-221" target="nk5KbnTbqSaS5txyQPrg-223">
          <mxGeometry relative="1" as="geometry" />
        </mxCell>
        <mxCell id="nk5KbnTbqSaS5txyQPrg-221" value="보유한 금액을 입력&lt;br&gt;소비 내역 입력시&lt;br&gt;보유금액에서 차감" style="rounded=0;whiteSpace=wrap;html=1;" vertex="1" parent="1">
          <mxGeometry x="1030" y="954" width="120" height="60" as="geometry" />
        </mxCell>
        <mxCell id="nk5KbnTbqSaS5txyQPrg-222" style="edgeStyle=orthogonalEdgeStyle;rounded=0;orthogonalLoop=1;jettySize=auto;html=1;entryX=0;entryY=0.5;entryDx=0;entryDy=0;" edge="1" parent="1" source="nk5KbnTbqSaS5txyQPrg-215" target="nk5KbnTbqSaS5txyQPrg-221">
          <mxGeometry relative="1" as="geometry">
            <Array as="points">
              <mxPoint x="940" y="895" />
              <mxPoint x="940" y="984" />
            </Array>
          </mxGeometry>
        </mxCell>
        <mxCell id="nk5KbnTbqSaS5txyQPrg-223" value="구현 미지정" style="rounded=0;whiteSpace=wrap;html=1;" vertex="1" parent="1">
          <mxGeometry x="1190" y="954" width="120" height="60" as="geometry" />
        </mxCell>
        <mxCell id="nk5KbnTbqSaS5txyQPrg-225" value="일정 추가시 대화상자 형태로 추가폼 구현" style="rounded=0;whiteSpace=wrap;html=1;" vertex="1" parent="1">
          <mxGeometry x="1190" y="880" width="120" height="60" as="geometry" />
        </mxCell>
      </root>
    </mxGraphModel>
  </diagram>
</mxfile>
